<svg xmlns="http://www.w3.org/2000/svg" width="62.6" height="62.731" viewBox="0 0 62.6 62.731"><defs><style>.a{fill:#ffb43b;}</style></defs><g transform="translate(0)"><path class="a" d="M222.371,25.05A14.268,14.268,0,0,0,202.193,4.873l-7.535,7.536a3.929,3.929,0,1,0,5.557,5.557l7.536-7.536a6.41,6.41,0,0,1,9.064,9.065L202.531,33.777a6.417,6.417,0,0,1-9.065,0,3.929,3.929,0,1,0-5.557,5.556,14.284,14.284,0,0,0,20.178,0ZM189.207,38.037a2.095,2.095,0,0,1,2.963-2.963,8.253,8.253,0,0,0,11.658,0L218.111,20.79A8.244,8.244,0,0,0,206.453,9.132l-7.536,7.535a2.095,2.095,0,0,1-2.963-2.963l7.536-7.535a12.434,12.434,0,0,1,17.583,17.584L206.79,38.037A12.448,12.448,0,0,1,189.207,38.037Z" transform="translate(-163.944 -0.614)"/><path class="a" d="M27.536,187.12l-8.209,8.209a6.41,6.41,0,0,1-9.064-9.065l14.284-14.284a6.418,6.418,0,0,1,9.064,0,3.929,3.929,0,1,0,5.557-5.557,14.283,14.283,0,0,0-20.178,0L4.705,180.708a14.268,14.268,0,0,0,20.178,20.178l8.21-8.209a3.929,3.929,0,0,0-5.557-5.557Zm4.26,4.26-8.209,8.209A12.434,12.434,0,0,1,6,182.005l14.284-14.284a12.449,12.449,0,0,1,17.584,0,2.095,2.095,0,1,1-2.963,2.963,8.252,8.252,0,0,0-11.658,0L8.965,184.968a8.24,8.24,0,0,0,5.829,14.069h0a8.188,8.188,0,0,0,5.829-2.411l8.209-8.209A2.1,2.1,0,0,1,31.8,191.38Z" transform="translate(-0.533 -142.373)"/><rect class="a" width="15.529" height="1.834" transform="translate(12 2.222) rotate(45)"/><rect class="a" width="15.529" height="1.834" transform="translate(5.363 17.271)"/><rect class="a" width="1.834" height="13.851" transform="translate(25.711)"/><rect class="a" width="15.529" height="1.834" transform="translate(51.933 60.51) rotate(-135)"/><rect class="a" width="15.529" height="1.834" transform="translate(43.043 43.625)"/><rect class="a" width="1.834" height="13.851" transform="translate(36.39 48.879)"/></g></svg>