<svg xmlns="http://www.w3.org/2000/svg" width="32.744" height="24.558" viewBox="0 0 32.744 24.558"><g transform="translate(0 -64)"><g transform="translate(0 64)"><path d="M30.015,64H2.729A2.731,2.731,0,0,0,0,66.729v19.1a2.731,2.731,0,0,0,2.729,2.729H30.015a2.731,2.731,0,0,0,2.729-2.729v-19.1A2.731,2.731,0,0,0,30.015,64ZM2.729,65.364H30.015a1.3,1.3,0,0,1,.283.057c-2.362,2.162-10.2,9.328-12.937,11.8a1.368,1.368,0,0,1-1.981,0c-2.741-2.469-10.575-9.636-12.937-11.8A1.3,1.3,0,0,1,2.729,65.364ZM1.364,85.829v-19.1a1.318,1.318,0,0,1,.076-.377c1.808,1.655,7.274,6.655,10.818,9.878-3.532,3.034-9,8.218-10.822,9.955A1.315,1.315,0,0,1,1.364,85.829Zm28.651,1.364H2.729a1.3,1.3,0,0,1-.308-.062c1.883-1.8,7.385-7.008,10.855-9.977.452.41.866.785,1.191,1.078a2.725,2.725,0,0,0,3.807,0c.326-.294.739-.668,1.192-1.079,3.471,2.969,8.972,8.181,10.855,9.977A1.3,1.3,0,0,1,30.015,87.194Zm1.364-1.364a1.317,1.317,0,0,1-.072.356c-1.823-1.739-7.29-6.921-10.822-9.955,3.544-3.223,9.009-8.222,10.818-9.878a1.319,1.319,0,0,1,.076.377Z" transform="translate(0 -64)"/></g></g></svg>