<svg xmlns="http://www.w3.org/2000/svg" width="27.696" height="26.369" viewBox="0 0 27.696 26.369"><path d="M1176.828,3219.351a14.562,14.562,0,0,1-5.477-1.52,30.074,30.074,0,0,1-9.972-7.428,25.671,25.671,0,0,1-4.864-7.711,9.541,9.541,0,0,1-.8-4.234,3.226,3.226,0,0,1,1.09-2.231c.47-.426.923-.862,1.378-1.3.3-.287.6-.574.9-.86a2,2,0,0,1,2.922-.005c.406.38.807.764,1.21,1.149l.624.6q.452.435.9.865c.292.277.582.554.873.835a1.788,1.788,0,0,1,.008,2.853l-.337.324c-.631.607-1.26,1.211-1.907,1.805a.637.637,0,0,0-.164.811,12.723,12.723,0,0,0,2.068,3.155,23.266,23.266,0,0,0,5.731,4.965c.294.174.608.321.911.464.2.092.394.184.582.281a.747.747,0,0,0,.9-.146c.745-.728,1.5-1.443,2.262-2.159a2,2,0,0,1,2.918,0q1.828,1.729,3.647,3.465a1.8,1.8,0,0,1-.013,2.835c-.232.224-.471.445-.709.665-.46.426-.936.866-1.371,1.327a3.882,3.882,0,0,1-2.994,1.2Q1176.992,3219.359,1176.828,3219.351Zm-16.772-24.345c-.29.27-.572.543-.854.814l-.041.041c-.463.445-.924.888-1.4,1.321a1.942,1.942,0,0,0-.663,1.38,8.106,8.106,0,0,0,.718,3.666,24.423,24.423,0,0,0,4.627,7.327,28.712,28.712,0,0,0,9.518,7.092,13.225,13.225,0,0,0,4.947,1.389c.093.005.181.008.269.008a2.443,2.443,0,0,0,1.938-.765c.467-.5.959-.951,1.436-1.392l.062-.058c.212-.2.425-.393.633-.593.4-.38.4-.608.014-.976q-1.814-1.735-3.641-3.461a.6.6,0,0,0-.967,0c-.773.73-1.515,1.431-2.246,2.144a2.136,2.136,0,0,1-1.521.651,2.2,2.2,0,0,1-1.057-.278c-.142-.073-.311-.152-.519-.249-.316-.148-.673-.315-1.021-.521a24.657,24.657,0,0,1-6.074-5.252,14.04,14.04,0,0,1-2.271-3.478,1.906,1.906,0,0,1,.458-2.251c.648-.6,1.26-1.184,1.873-1.774l.369-.354c.388-.373.442-.568,0-1-.294-.283-.586-.56-.878-.838s-.6-.574-.905-.865l-.69-.662c-.375-.357-.748-.715-1.127-1.07a.746.746,0,0,0-.49-.246A.738.738,0,0,0,1160.056,3195.005Zm17.014,10.792a13.114,13.114,0,0,0-7.121-6.732.641.641,0,0,1,0-1.193.659.659,0,0,1,.487,0,14.4,14.4,0,0,1,7.82,7.4.639.639,0,0,1-.328.853.618.618,0,0,1-.253.053A.665.665,0,0,1,1177.07,3205.8Zm5.019-.458a21.482,21.482,0,0,0-11.66-11.048.673.673,0,0,1,0-1.252.686.686,0,0,1,.255-.05.707.707,0,0,1,.254.049,22.846,22.846,0,0,1,12.392,11.743.672.672,0,0,1-.344.9.647.647,0,0,1-.265.056A.7.7,0,0,1,1182.089,3205.339Z" transform="translate(-1155.692 -3192.99)"/></svg>