<svg width="96" height="96" xmlns="http://www.w3.org/2000/svg" xmlns:xlink="http://www.w3.org/1999/xlink" overflow="hidden"><defs><clipPath id="clip0"><rect x="732" y="226" width="96" height="96"/></clipPath></defs><g clip-path="url(#clip0)" transform="translate(-732 -226)"><path d="M768.535 294.142C768.534 296.65 770.567 298.683 773.075 298.684 775.583 298.685 777.616 296.652 777.617 294.144 777.618 291.636 775.585 289.603 773.077 289.602 773.076 289.602 773.076 289.602 773.075 289.602 770.568 289.603 768.536 291.635 768.535 294.142ZM775.616 294.142C775.617 295.545 774.479 296.683 773.076 296.684 771.673 296.685 770.535 295.547 770.534 294.144 770.533 292.741 771.671 291.603 773.074 291.602 773.075 291.602 773.075 291.602 773.076 291.602 774.478 291.604 775.614 292.74 775.616 294.142Z" stroke="#FFBA49" fill="none"/><path d="M781.107 302.653C779.802 301.647 778.309 300.913 776.716 300.493 775.513 300.124 774.263 299.935 773.005 299.933 771.749 299.952 770.501 300.14 769.295 300.493 767.719 300.959 766.235 301.689 764.904 302.653 764.349 303.092 764.019 303.755 764.004 304.463L764.004 309 782.004 309 782.004 304.46C781.989 303.754 781.66 303.092 781.107 302.653ZM780.007 307 766 307 766 304.5C766.002 304.398 766.046 304.302 766.121 304.233 767.254 303.421 768.515 302.803 769.852 302.407 770.88 302.107 771.944 301.946 773.015 301.928 774.069 301.931 775.117 302.09 776.125 302.4L776.202 302.422C777.53 302.769 778.775 303.38 779.863 304.217 779.94 304.275 779.99 304.362 780.003 304.458Z" stroke="#FFBA49" fill="none"/><path d="M788.4 294.142C788.399 296.65 790.432 298.683 792.94 298.684 795.448 298.685 797.482 296.652 797.482 294.144 797.483 291.636 795.45 289.603 792.942 289.602 792.942 289.602 792.941 289.602 792.941 289.602 790.434 289.603 788.401 291.635 788.4 294.142ZM795.482 294.142C795.483 295.545 794.345 296.683 792.942 296.684 791.539 296.685 790.401 295.547 790.4 294.144 790.399 292.741 791.537 291.603 792.94 291.602 792.94 291.602 792.941 291.602 792.941 291.602 794.342 291.605 795.477 292.741 795.479 294.142Z" stroke="#FFBA49" fill="none"/><path d="M801.109 302.653C799.804 301.647 798.312 300.913 796.719 300.493 795.516 300.124 794.266 299.935 793.008 299.933 791.752 299.952 790.504 300.14 789.298 300.493 787.722 300.959 786.238 301.689 784.907 302.653 784.352 303.092 784.022 303.755 784.007 304.463L784.007 309 802.007 309 802.007 304.46C801.992 303.754 801.663 303.091 801.109 302.653ZM800.009 307 786.009 307 786.009 304.5C786.011 304.398 786.055 304.301 786.131 304.233 787.264 303.42 788.524 302.803 789.861 302.407 790.889 302.107 791.953 301.946 793.024 301.928 794.079 301.931 795.127 302.09 796.135 302.4L796.212 302.422C797.54 302.769 798.785 303.379 799.872 304.217 799.949 304.275 799.999 304.362 800.012 304.458Z" stroke="#FFBA49" fill="none"/><path d="M808.4 294.142C808.399 296.65 810.432 298.683 812.94 298.684 815.448 298.685 817.482 296.652 817.482 294.144 817.483 291.636 815.45 289.603 812.942 289.602 812.942 289.602 812.941 289.602 812.941 289.602 810.434 289.603 808.401 291.635 808.4 294.142ZM815.481 294.142C815.482 295.545 814.344 296.683 812.941 296.684 811.538 296.685 810.4 295.547 810.399 294.144 810.398 292.741 811.536 291.603 812.939 291.602 812.94 291.602 812.94 291.602 812.941 291.602 814.343 291.604 815.479 292.74 815.481 294.142Z" stroke="#FFBA49" fill="none"/><path d="M821.112 302.653C819.807 301.647 818.314 300.913 816.721 300.493 815.519 300.124 814.269 299.935 813.011 299.933 811.754 299.952 810.506 300.14 809.3 300.493 807.725 300.959 806.24 301.689 804.91 302.653 804.354 303.091 804.024 303.755 804.01 304.463L804.01 309 822.01 309 822.01 304.46C821.995 303.754 821.666 303.091 821.112 302.653ZM820.012 307 806.012 307 806.012 304.5C806.014 304.398 806.057 304.302 806.133 304.233 807.266 303.421 808.527 302.803 809.864 302.407 810.892 302.107 811.956 301.946 813.027 301.928 814.081 301.931 815.129 302.09 816.137 302.4L816.214 302.422C817.542 302.769 818.787 303.38 819.875 304.217 819.952 304.275 820.002 304.362 820.015 304.458Z" stroke="#FFBA49" fill="none"/><path d="M756 239C756 237.895 756.895 237 758 237L809 237C810.105 237 811 237.895 811 239L811 273C811 274.105 810.105 275 809 275L775.163 275 773.952 277 809 277C811.209 277 813 275.209 813 273L813 239C813 236.791 811.209 235 809 235L758 235C755.791 235 754 236.791 754 239L754 243.033C754.679 243.079 755.349 243.203 756 243.401Z" stroke="#FFBA49" fill="none"/><path d="M765.9 273.131C766.285 273.177 766.661 272.997 766.867 272.669L771.159 265.823C771.628 265.081 772.61 264.859 773.352 265.328 773.378 265.344 773.403 265.361 773.427 265.378 774.118 265.936 774.263 266.932 773.759 267.664L768.52 276.317C767.987 277.197 766.859 277.506 765.951 277.023 765.463 276.763 764.858 276.948 764.598 277.436 764.338 277.924 764.523 278.529 765.011 278.789 766.856 279.771 769.147 279.141 770.23 277.353L775.459 268.717C776.278 267.451 776.253 265.816 775.394 264.577L788.076 251.658C788.457 251.258 788.442 250.625 788.042 250.244 787.65 249.871 787.032 249.877 786.648 250.258L773.807 263.338C773.172 263.085 772.478 263.019 771.807 263.149 770.839 263.343 769.993 263.923 769.464 264.756L766.3 269.805 764.453 264.217 764.388 264.063C762.9 260.647 759.355 260 753.344 260 747.333 260 743.792 260.647 742.292 264.073 742.292 264.073 742.252 264.157 742.232 264.214 742.206 264.282 742.185 264.353 742.169 264.424L738.678 283.509C738.261 285.283 739.361 287.06 741.135 287.477 741.216 287.495 741.297 287.511 741.378 287.524L741.678 287.571C741.73 287.579 741.783 287.583 741.836 287.583 742.388 287.566 742.822 287.104 742.805 286.552 742.79 286.082 742.449 285.685 741.986 285.6L741.686 285.552C741.328 285.497 741.011 285.294 740.81 284.993 740.602 284.677 740.538 284.288 740.635 283.922L744.116 264.896 744.127 264.868C744.942 263.007 746.651 262 753.344 262 760.037 262 761.744 263.007 762.553 264.851L765.071 272.451C765.192 272.819 765.515 273.084 765.9 273.131Z" stroke="#FFBA49" fill="none"/><path d="M760 269.42C759.448 269.42 759 269.868 759 270.42L759 311 754.5 311 754.5 286.148 752.5 286.148 752.5 311 748 311 748 270.42C748 269.868 747.552 269.42 747 269.42 746.448 269.42 746 269.868 746 270.42L746 313 761 313 761 270.42C761 269.868 760.552 269.42 760 269.42Z" stroke="#FFBA49" fill="none"/><path d="M753.344 258C756.658 258 759.344 255.314 759.344 252 759.344 248.686 756.658 246 753.344 246 750.03 246 747.344 248.686 747.344 252 747.348 255.312 750.032 257.996 753.344 258ZM753.344 248C755.553 248 757.344 249.791 757.344 252 757.344 254.209 755.553 256 753.344 256 751.135 256 749.344 254.209 749.344 252 749.344 249.791 751.135 248 753.344 248Z" stroke="#FFBA49" fill="none"/></g></svg>