<svg xmlns="http://www.w3.org/2000/svg" width="78.054" height="72.466" viewBox="0 0 78.054 72.466"><defs><style>.a{fill:#ffb43b;stroke:#393939;stroke-miterlimit:10;stroke-width:1.3px;}</style></defs><g transform="translate(0.677 0.65)"><path class="a" d="M29.524,71.166H0l.075-1.809C.226,65.267.7,61.13.7,61.092a7.223,7.223,0,0,1,1.073-3.553,6.546,6.546,0,0,1,3.45-2.865l5.39-1.922,4.167,7.756h.094l4.185-7.756,5.362,1.913a6.7,6.7,0,0,1,1.932,1.1s.2.151.481.414a6.759,6.759,0,0,1,2.4-1.508l5.39-1.922,4.166,7.756h.093l4.185-7.756,5.362,1.913a6.676,6.676,0,0,1,1.932,1.1,6.393,6.393,0,0,1,1.915-1.093l5.371-1.922,4.185,7.756h.094L66.1,52.752l5.363,1.913a6.636,6.636,0,0,1,3.479,2.884,7.51,7.51,0,0,1,1.074,3.741h-.066c.225.764.481,2.78.687,8.068l.066,1.809Zm23.92-13.231a3.366,3.366,0,0,0-1.046.631c.6,1.554,1.178,7.144,1.14,9.123H73.075c-.179-2.988-.462-5.665-.518-6.192a4.533,4.533,0,0,0-.632-2.224,3.1,3.1,0,0,0-1.64-1.338L67.74,57.02l-3.731,6.965h-4.26L56.007,57.02Zm-23.023,0a3.144,3.144,0,0,0-1.631,1.329,1.55,1.55,0,0,0-.132.254,4.05,4.05,0,0,0-.491,1.771l-.027.311c-.085.848-.339,3.327-.5,6.088h22.4c-.188-5.419-.687-7.86-1.1-8.34l-.151-.254a3.051,3.051,0,0,0-1.538-1.16l-2.545-.915-3.74,6.965h-4.26L32.975,57.02Zm-24.014,0a3.148,3.148,0,0,0-1.631,1.329,4.324,4.324,0,0,0-.621,2.026l-.029.311c-.084.848-.339,3.327-.5,6.088H24.173c.188-3.478.537-6.569.537-6.6a6.151,6.151,0,0,1,.254-1.677.135.135,0,0,0-.039-.066l-.15-.254a3.091,3.091,0,0,0-1.536-1.16L20.7,57.02l-3.741,6.965h-4.26L8.962,57.02ZM54.432,46.5a7.441,7.441,0,1,1,7.446,7.436A7.454,7.454,0,0,1,54.432,46.5Zm3.478,0a3.963,3.963,0,1,0,3.969-3.968A3.974,3.974,0,0,0,57.91,46.5Zm-26.51,0a7.441,7.441,0,1,1,7.436,7.436A7.445,7.445,0,0,1,31.4,46.5Zm3.478,0a3.963,3.963,0,1,0,3.958-3.968A3.965,3.965,0,0,0,34.878,46.5Zm-27.49,0a7.44,7.44,0,1,1,7.436,7.436A7.444,7.444,0,0,1,7.388,46.5Zm3.478,0a3.963,3.963,0,1,0,3.958-3.968A3.966,3.966,0,0,0,10.865,46.5Zm50.1-11.474V29.1H40.279V35.03H36.744V29.1H16.059V35.03H12.524V25.568h24.22V21.044H24.164V0H35.072a1.767,1.767,0,0,1,0,3.535H27.7V17.51H49.336V3.535H41.7A1.767,1.767,0,0,1,41.7,0H52.869V21.044H40.279v4.524H64.5V35.03Z"/></g></svg>